<?xml version="1.0" encoding="UTF-8"?>
<!-- Generator: Adobe Illustrator 21.1.0, SVG Export Plug-In . SVG Version: 6.00 Build 0)  -->
<svg version="1.1" id="Icons" xmlns="http://www.w3.org/2000/svg" xmlns:xlink="http://www.w3.org/1999/xlink" x="0px" y="0px" viewBox="0 0 48 48" style="enable-background:new 0 0 48 48;" xml:space="preserve">
<style type="text/css">
	.st0{opacity:0.15;fill:#45413C;}
	.st1{fill:#DAEDF7;stroke:#45413C;stroke-linecap:round;stroke-linejoin:round;stroke-miterlimit:10;}
	.st2{fill:#656769;}
	.st3{fill:#87898C;}
	.st4{fill:none;stroke:#45413C;stroke-linecap:round;stroke-linejoin:round;stroke-miterlimit:10;}
	.st5{fill:#DAEDF7;}
	.st6{fill:#E8F4FA;}
	.st7{fill:#FFFFFF;}
	.st8{fill:#E0E0E0;}
	.st9{fill:#00B8F0;}
	.st10{fill:#FF6242;stroke:#45413C;stroke-linecap:round;stroke-linejoin:round;stroke-miterlimit:10;}
	.st11{fill:#FFE500;stroke:#45413C;stroke-linecap:round;stroke-linejoin:round;stroke-miterlimit:10;}
	.st12{fill:#00DBA8;stroke:#45413C;stroke-linecap:round;stroke-linejoin:round;stroke-miterlimit:10;}
	.st13{fill:#BF8DF2;stroke:#45413C;stroke-linecap:round;stroke-linejoin:round;stroke-miterlimit:10;}
	.st14{fill:#00B8F0;stroke:#45413C;stroke-linecap:round;stroke-linejoin:round;stroke-miterlimit:10;}
	.st15{fill:#87898C;stroke:#45413C;stroke-linecap:round;stroke-linejoin:round;stroke-miterlimit:10;}
	.st16{fill:#FF6242;}
	.st17{fill:#E04122;}
	.st18{fill:#9CEB60;}
	.st19{fill:#6DD627;}
	.st20{fill:#FF866E;}
	.st21{fill:#F0F0F0;}
	.st22{fill:#009FD9;}
	.st23{fill:#656769;stroke:#45413C;stroke-linecap:round;stroke-linejoin:round;stroke-miterlimit:10;}
	.st24{fill:#ADC4D9;}
	.st25{fill:#8CA4B8;}
	.st26{fill:#BDBEC0;}
	.st27{fill:#C0DCEB;stroke:#45413C;stroke-linecap:round;stroke-linejoin:round;stroke-miterlimit:10;}
	.st28{fill:#4ACFFF;}
	.st29{fill:#FFFFFF;stroke:#45413C;stroke-linecap:round;stroke-linejoin:round;stroke-miterlimit:10;}
	.st30{fill:#C0DCEB;}
	.st31{fill:#FFAA54;stroke:#45413C;stroke-linecap:round;stroke-linejoin:round;stroke-miterlimit:10;}
	.st32{fill:#FF8A14;}
	.st33{fill:#FFAA54;}
	.st34{fill:#6DD627;stroke:#45413C;stroke-linecap:round;stroke-linejoin:round;stroke-miterlimit:10;}
	.st35{fill:#DEBB7E;}
	.st36{fill:#F0D5A8;}
	.st37{fill:none;stroke:#45413C;stroke-miterlimit:10;}
	.st38{fill:#FFE500;}
	.st39{fill:#FFF48C;}
	.st40{fill:#FFF48C;stroke:#45413C;stroke-linecap:round;stroke-linejoin:round;stroke-miterlimit:10;}
	.st41{fill:#FF8A14;stroke:#45413C;stroke-linecap:round;stroke-linejoin:round;stroke-miterlimit:10;}
	.st42{fill:#525252;}
	.st43{fill:#00F5BC;}
	.st44{fill:#8CFFE4;}
	.st45{fill:#00DBA8;}
	.st46{fill:#EBCB00;}
	.st47{fill:#FF866E;stroke:#45413C;stroke-linecap:round;stroke-linejoin:round;stroke-miterlimit:10;}
	.st48{fill:#FFCC99;}
	.st49{fill:#45413C;stroke:#45413C;stroke-linecap:round;stroke-linejoin:round;stroke-miterlimit:10;}
	.st50{fill:#C8FFA1;}
	.st51{fill:#BDBEC0;stroke:#45413C;stroke-linecap:round;stroke-linejoin:round;stroke-miterlimit:10;}
	.st52{fill:#80DDFF;}
	.st53{fill:#4ACFFF;stroke:#45413C;stroke-linecap:round;stroke-linejoin:round;stroke-miterlimit:10;}
	.st54{fill:#FFFCE5;}
	.st55{fill:#FFFACF;}
	.st56{fill:#627B8C;}
	.st57{fill:#BF8256;}
	.st58{fill:#DEA47A;}
	.st59{fill:#BF8256;stroke:#45413C;stroke-linecap:round;stroke-linejoin:round;stroke-miterlimit:10;}
	.st60{fill:#DEBB7E;stroke:#45413C;stroke-linecap:round;stroke-linejoin:round;stroke-miterlimit:10;}
	.st61{fill:#B89558;}
	.st62{fill:#B8ECFF;}
	.st63{fill:#F7E5C6;}
	.st64{fill:#FFF5E3;}
	.st65{fill:#915E3A;}
	.st66{fill:#45413C;stroke:#45413C;stroke-miterlimit:10;}
	.st67{fill:#FFB0CA;stroke:#45413C;stroke-linecap:round;stroke-linejoin:round;stroke-miterlimit:10;}
	.st68{fill:#FF87AF;stroke:#45413C;stroke-linecap:round;stroke-linejoin:round;stroke-miterlimit:10;}
	.st69{fill:#E5FEFF;}
	.st70{fill:#A6FBFF;}
	.st71{fill:#FFB0CA;}
	.st72{fill:#FF87AF;}
	.st73{fill:none;stroke:#45413C;stroke-linecap:round;stroke-miterlimit:10;}
	.st74{fill:#BF8DF2;}
	.st75{fill:#DABFF5;}
	.st76{fill:#4AEFF7;}
	.st77{fill:#00DFEB;}
	.st78{fill:#FFCEBF;}
	.st79{fill:#FF6196;stroke:#45413C;stroke-linecap:round;stroke-linejoin:round;stroke-miterlimit:10;}
	.st80{fill:#00DFEB;stroke:#45413C;stroke-linecap:round;stroke-linejoin:round;stroke-miterlimit:10;}
	.st81{fill:#FF6196;}
	.st82{fill:#EBCB00;stroke:#45413C;stroke-linecap:round;stroke-linejoin:round;stroke-miterlimit:10;}
	.st83{fill:#00F5BC;stroke:#45413C;stroke-linecap:round;stroke-linejoin:round;stroke-miterlimit:10;}
	.st84{fill:#4AEFF7;stroke:#45413C;stroke-linecap:round;stroke-linejoin:round;stroke-miterlimit:10;}
	.st85{fill:#46B000;}
	.st86{fill:#E0366F;}
	.st87{fill:#E0366F;stroke:#45413C;stroke-linecap:round;stroke-linejoin:round;stroke-miterlimit:10;}
	.st88{fill:none;stroke:#E04122;stroke-linecap:round;stroke-linejoin:round;stroke-miterlimit:10;}
	.st89{fill:#FFA694;}
	.st90{fill:#EDDBFF;stroke:#45413C;stroke-linecap:round;stroke-linejoin:round;stroke-miterlimit:10;}
	.st91{fill:none;stroke:#BF8DF2;stroke-linecap:round;stroke-linejoin:round;stroke-miterlimit:10;}
	.st92{fill:#EDDBFF;}
	.st93{fill:#DABFF5;stroke:#45413C;stroke-linecap:round;stroke-linejoin:round;stroke-miterlimit:10;}
	.st94{fill:#E04122;stroke:#45413C;stroke-linecap:round;stroke-linejoin:round;stroke-miterlimit:10;}
	.st95{fill:#EB6D00;}
	.st96{fill:none;stroke:#45413C;stroke-width:1.0064;stroke-linecap:round;stroke-linejoin:round;stroke-miterlimit:10;}
	.st97{fill:#915E3A;stroke:#45413C;stroke-linecap:round;stroke-linejoin:round;stroke-miterlimit:10;}
	.st98{fill:#E0E0E0;stroke:#45413C;stroke-linecap:round;stroke-linejoin:round;stroke-miterlimit:10;}
	.st99{fill:#F0F0F0;stroke:#45413C;stroke-linecap:round;stroke-linejoin:round;stroke-miterlimit:10;}
	.st100{fill:#46B000;stroke:#45413C;stroke-linecap:round;stroke-linejoin:round;stroke-miterlimit:10;}
	.st101{fill:#4F4B45;}
	.st102{fill:#FFDCD1;}
	.st103{fill:#8CA4B8;stroke:#45413C;stroke-linecap:round;stroke-linejoin:round;stroke-miterlimit:10;}
	.st104{fill:#E8F4FA;stroke:#45413C;stroke-linecap:round;stroke-linejoin:round;stroke-miterlimit:10;}
	.st105{fill:none;stroke:#48CF3E;stroke-linecap:round;stroke-linejoin:round;stroke-miterlimit:10;}
	.st106{fill:none;stroke:#FF4064;stroke-linecap:round;stroke-linejoin:round;stroke-miterlimit:10;}
	.st107{fill:none;stroke:#FFB700;stroke-linecap:round;stroke-linejoin:round;stroke-miterlimit:10;}
	.st108{fill:none;stroke:#00AED9;stroke-linecap:round;stroke-linejoin:round;stroke-miterlimit:10;}
	.st109{fill:#C0DCEB;stroke:#45413C;stroke-miterlimit:10;}
	.st110{fill:#525252;stroke:#45413C;stroke-linecap:round;stroke-linejoin:round;stroke-miterlimit:10;}
	.st111{fill:#FFF5E3;stroke:#45413C;stroke-linecap:round;stroke-linejoin:round;stroke-miterlimit:10;}
	.st112{fill:#FFFFFF;stroke:#45413C;stroke-linejoin:round;stroke-miterlimit:10;}
	.st113{fill:#F0C2A1;}
	.st114{fill:#DEA47A;stroke:#45413C;stroke-linecap:round;stroke-linejoin:round;stroke-miterlimit:10;}
	.st115{fill:#F0C2A1;stroke:#45413C;stroke-linecap:round;stroke-linejoin:round;stroke-miterlimit:10;}
	.st116{fill:#FFFEF2;}
	.st117{fill:#9CEB60;stroke:#45413C;stroke-linecap:round;stroke-linejoin:round;stroke-miterlimit:10;}
	.st118{fill:#9F5AE5;stroke:#45413C;stroke-linecap:round;stroke-linejoin:round;stroke-miterlimit:10;}
	.st119{fill:#627B8C;stroke:#45413C;stroke-linecap:round;stroke-linejoin:round;stroke-miterlimit:10;}
	.st120{fill:#FFFACF;stroke:#45413C;stroke-linecap:round;stroke-linejoin:round;stroke-miterlimit:10;}
</style>
<g id="XMLID_16470_">
	<path id="XMLID_16487_" class="st8" d="M42.8,33.3c-0.5,1.1-1.1,2.1-1.8,3c-0.1-0.3-0.3-0.6-0.6-0.8c-4.6-2.7-8.5-7.4-10.4-13.4   c-1.9-6-1.5-12,0.6-16.9c0.1-0.3,0.2-0.7,0.1-1c1.1,0.4,2.2,0.8,3.2,1.3c0,0,0,0,0,0c-2.2,4.4-2.7,10-0.9,15.6   c1.8,5.6,5.5,9.9,9.8,12.1C42.7,33.3,42.7,33.3,42.8,33.3z"/>
	<path id="XMLID_16486_" class="st7" d="M33.7,5.5C33.7,5.5,33.7,5.5,33.7,5.5c-0.8,1.5-1.3,3.2-1.7,5c-1-0.3-2-0.5-3-0.6   c0.3-1.7,0.8-3.2,1.4-4.7c0.1-0.3,0.2-0.7,0.1-1C31.7,4.5,32.7,5,33.7,5.5z"/>
	<path id="XMLID_16485_" class="st96" d="M42.8,33.3c-0.5,1.1-1.1,2.1-1.8,3c-0.1-0.3-0.3-0.6-0.6-0.8c-4.6-2.7-8.5-7.4-10.4-13.4   c-1.9-6-1.5-12,0.6-16.9c0.1-0.3,0.2-0.7,0.1-1c1.1,0.4,2.2,0.8,3.2,1.3c0,0,0,0,0,0c-2.2,4.4-2.7,10-0.9,15.6   c1.8,5.6,5.5,9.9,9.8,12.1C42.7,33.3,42.7,33.3,42.8,33.3z"/>
	<path id="XMLID_16484_" class="st8" d="M17.5,42.8c-0.1,0.3-0.2,0.7-0.1,1c-1.1-0.4-2.2-0.8-3.2-1.3c0,0,0,0,0,0   c2.2-4.3,2.7-10,0.9-15.6c-1.8-5.6-5.5-9.9-9.8-12.1c0.5-1,1.1-2,1.8-2.9c0.1,0.3,0.3,0.5,0.6,0.7c4.6,2.7,8.5,7.4,10.4,13.4   C20,31.9,19.7,37.9,17.5,42.8z"/>
	<path id="XMLID_16483_" class="st7" d="M11.5,15.4c-0.8,0.7-1.5,1.4-2.2,2.2c-1.2-1.1-2.6-2.1-4-2.8c0.5-1,1.1-2,1.8-2.9   c0.1,0.3,0.3,0.5,0.6,0.7C9.1,13.3,10.3,14.3,11.5,15.4z"/>
	<path id="XMLID_16482_" class="st96" d="M17.5,42.8c-0.1,0.3-0.2,0.7-0.1,1c-1.1-0.4-2.2-0.8-3.2-1.3c0,0,0,0,0,0   c2.2-4.3,2.7-10,0.9-15.6c-1.8-5.6-5.5-9.9-9.8-12.1c0.5-1,1.1-2,1.8-2.9c0.1,0.3,0.3,0.5,0.6,0.7c4.6,2.7,8.5,7.4,10.4,13.4   C20,31.9,19.7,37.9,17.5,42.8z"/>
	<ellipse id="XMLID_16481_" class="st0" cx="24" cy="44.7" rx="17.8" ry="2.3"/>
	<g id="XMLID_16471_">
		<path id="XMLID_16480_" class="st18" d="M34.8,5.2c-0.4-0.2-0.9-0.1-1.1,0.3c-2.2,4.4-2.7,10-0.9,15.6c1.8,5.6,5.5,9.9,9.8,12.1    c0.4,0.2,0.9,0,1.1-0.4c2.1-4.7,2.6-10.2,0.9-15.6C42.9,12,39.3,7.8,34.8,5.2z"/>
		<path id="XMLID_16479_" class="st50" d="M45.5,21.3c-2.9-5.1-7.7-9-13.5-10.6c0.3-1.9,0.9-3.6,1.7-5.2c0.2-0.4,0.7-0.5,1.1-0.3    c4.5,2.6,8.1,6.8,9.8,12.1C45,18.7,45.3,20,45.5,21.3z"/>
		<path id="XMLID_16478_" class="st96" d="M34.8,5.2c-0.4-0.2-0.9-0.1-1.1,0.3c-2.2,4.4-2.7,10-0.9,15.6c1.8,5.6,5.5,9.9,9.8,12.1    c0.4,0.2,0.9,0,1.1-0.4c2.1-4.7,2.6-10.2,0.9-15.6C42.9,12,39.3,7.8,34.8,5.2z"/>
		<path id="XMLID_16477_" class="st18" d="M30.5,5.2c0.4-0.9-0.1-1.9-1-2.1c-3.9-1-8-1-12.1,0.3s-7.5,3.7-10,6.8    c-0.6,0.7-0.4,1.8,0.4,2.3c4.6,2.7,8.5,7.4,10.4,13.4s1.6,12-0.6,16.9c-0.4,0.9,0.1,1.9,1,2.1c3.9,1,8,1,12.1-0.3    c4.1-1.3,7.5-3.7,10-6.8c0.6-0.7,0.4-1.8-0.4-2.3c-4.6-2.7-8.5-7.4-10.4-13.4S28.3,10.1,30.5,5.2z"/>
		<path id="XMLID_16476_" class="st50" d="M30.5,5.2c-0.7,1.6-1.2,3.2-1.5,5C28,10,27.1,10,26.1,10c-5.6,0-10.6,2-14.5,5.4    c-1.2-1.1-2.5-2.1-3.8-2.9c-0.8-0.5-1-1.6-0.4-2.3c2.5-3.1,5.9-5.5,10-6.8c4.1-1.3,8.2-1.3,12.1-0.3C30.4,3.3,30.9,4.3,30.5,5.2z"/>
		<path id="XMLID_16475_" class="st96" d="M30.5,5.2c0.4-0.9-0.1-1.9-1-2.1c-3.9-1-8-1-12.1,0.3s-7.5,3.7-10,6.8    c-0.6,0.7-0.4,1.8,0.4,2.3c4.6,2.7,8.5,7.4,10.4,13.4s1.6,12-0.6,16.9c-0.4,0.9,0.1,1.9,1,2.1c3.9,1,8,1,12.1-0.3    c4.1-1.3,7.5-3.7,10-6.8c0.6-0.7,0.4-1.8-0.4-2.3c-4.6-2.7-8.5-7.4-10.4-13.4S28.3,10.1,30.5,5.2z"/>
		<path id="XMLID_16474_" class="st18" d="M5.3,14.7c-0.4-0.2-0.9,0-1.1,0.4c-2.1,4.7-2.6,10.2-0.9,15.6c1.7,5.3,5.3,9.5,9.8,12.1    c0.4,0.2,0.9,0.1,1.1-0.3c2.2-4.4,2.7-10,0.9-15.6C13.4,21.3,9.7,17,5.3,14.7z"/>
		<path id="XMLID_16473_" class="st50" d="M9.3,17.5C6,21.3,3.9,26.3,3.8,31.8c-0.1-0.4-0.3-0.7-0.4-1.1c-1.7-5.3-1.3-10.8,0.9-15.6    c0.2-0.4,0.7-0.6,1.1-0.4C6.7,15.4,8.1,16.4,9.3,17.5z"/>
		<path id="XMLID_16472_" class="st96" d="M5.3,14.7c-0.4-0.2-0.9,0-1.1,0.4c-2.1,4.7-2.6,10.2-0.9,15.6c1.7,5.3,5.3,9.5,9.8,12.1    c0.4,0.2,0.9,0.1,1.1-0.3c2.2-4.4,2.7-10,0.9-15.6C13.4,21.3,9.7,17,5.3,14.7z"/>
	</g>
</g>
</svg>